Coordinates
version=1
nRows=19
nColumns=24
inDegrees=yes

Units are S.I. units (second, meters, Newtons, ...)
Angles are in degrees.

endheader
time	pelvis_tilt	pelvis_list	pelvis_rotation	pelvis_tx	pelvis_ty	pelvis_tz	hip_flexion_r	hip_adduction_r	hip_rotation_r	knee_angle_r	ankle_angle_r	subtalar_angle_r	mtp_angle_r	hip_flexion_l	hip_adduction_l	hip_rotation_l	knee_angle_l	ankle_angle_l	subtalar_angle_l	mtp_angle_l	lumbar_extension	lumbar_bending	lumbar_rotation
      1.05700000	     -5.99337513	     -2.17370965	      3.29318831	      0.50604872	      0.99875611	      0.34304648	     16.23537984	      5.77916510	      2.01879181	    -20.43974319	     10.76282297	     -9.40831553	      3.25738756	     23.86461404	     -2.50743891	      1.12138556	    -70.90779329	      2.16931704	     -2.79118727	      5.49771586	     -4.99860830	     10.68787357	     -1.50783303
      1.06116667	     -5.96250031	     -2.03622003	      3.12993451	      0.51066268	      0.99958791	      0.34340854	     15.68981295	      5.70987155	      2.24708140	    -19.99371072	     10.76368913	     -9.44276473	      3.27071860	     24.38530521	     -2.47800931	      0.93311156	    -70.49247746	      2.76398620	     -2.52852398	      5.40031974	     -5.09029036	     10.47315617	     -1.20190164
      1.06533333	     -5.94585091	     -1.90390325	      2.96693333	      0.51527203	      1.00036461	      0.34375867	     15.15971979	      5.64178394	      2.48281064	    -19.54553911	     10.75806152	     -9.48565733	      3.28442705	     24.90983221	     -2.45268188	      0.75161923	    -70.03432193	      3.32684887	     -2.28591469	      5.29723299	     -5.16996875	     10.26552365	     -0.90772723
      1.06950000	     -5.89733876	     -1.75463399	      2.80267381	      0.51989661	      1.00116260	      0.34408399	     14.59541606	      5.55011468	      2.70673665	    -19.09993527	     10.76839213	     -9.51013235	      3.29979994	     25.37614258	     -2.41308445	      0.56166896	    -69.51326315	      3.84048410	     -2.08593028	      5.18834669	     -5.27540914	     10.04036527	     -0.62358625
      1.07366667	     -5.86820364	     -1.62558258	      2.63594330	      0.52452320	      1.00190013	      0.34439167	     14.04646831	      5.47559880	      2.94549364	    -18.63662298	     10.73612067	     -9.54835246	      3.32287619	     25.85278361	     -2.38970432	      0.38523990	    -68.95405928	      4.32678083	     -1.93482721	      5.01850327	     -5.36474987	      9.84360670	     -0.29786244
      1.07783333	     -5.83520839	     -1.48121110	      2.47355659	      0.52914999	      1.00259512	      0.34469170	     13.50352971	      5.37806937	      3.16480809	    -18.19975989	     10.78105293	     -9.55760677	      3.33881589	     26.30855089	     -2.35158769	      0.21096210	    -68.34527257	      4.76093975	     -1.75522058	      4.91827792	     -5.44486720	      9.62850924	     -0.08474018
      1.08200000	     -5.79310405	     -1.34126544	      2.30301119	      0.53378176	      1.00326577	      0.34497300	     12.94783406	      5.28103294	      3.39098934	    -17.75283795	     10.79355278	     -9.56379941	      3.35463624	     26.73715921	     -2.31783376	      0.03508554	    -67.69177938	      5.16179261	     -1.64240519	      4.81305393	     -5.53870029	      9.42125778	      0.18343728
      1.08616667	     -5.78196727	     -1.18889852	      2.12608248	      0.53841550	      1.00386981	      0.34522502	     12.43641122	      5.15977865	      3.59414308	    -17.32764343	     10.78955340	     -9.50144937	      3.36345706	     27.17911516	     -2.26494346	     -0.14043394	    -66.98596691	      5.51354338	     -1.59976606	      4.75962209	     -5.58479244	      9.21655059	      0.32897040
      1.09033333	     -5.70096979	     -1.04941821	      1.96166650	      0.54306960	      1.00453469	      0.34547316	     11.82913571	      5.05362383	      3.81756035	    -16.86122260	     10.84175747	     -9.52338877	      3.38148081	     27.52903401	     -2.22226672	     -0.28681491	    -66.23435693	      5.81732128	     -1.53303773	      4.64927914	     -5.73053854	      9.00414694	      0.69479045
      1.09450000	     -5.68140100	     -0.90166300	      1.77668590	      0.54770675	      1.00507125	      0.34569663	     11.30961954	      4.92830949	      4.03157728	    -16.43429347	     10.84378423	     -9.46276572	      3.39379982	     27.92685896	     -2.16715882	     -0.44185917	    -65.43894651	      6.08877847	     -1.52933023	      4.57790268	     -5.78982644	      8.82268427	      0.88229957
      1.09866667	     -5.63727935	     -0.76098868	      1.59731050	      0.55237222	      1.00561722	      0.34592077	     10.75170371	      4.80578963	      4.23141631	    -15.98256466	     10.86391893	     -9.40265221	      3.40546587	     28.28012281	     -2.11997732	     -0.58740892	    -64.59915149	      6.31704738	     -1.55447669	      4.51267906	     -5.87562628	      8.61879202	      1.09831672
      1.10283333	     -5.55250622	     -0.63236559	      1.43532825	      0.55704362	      1.00616430	      0.34610636	     10.14313923	      4.68976053	      4.41577708	    -15.51822326	     10.94004390	     -9.37596246	      3.42608006	     28.57706651	     -2.07129834	     -0.69481093	    -63.72167068	      6.48447831	     -1.61978269	      4.40440106	     -6.01551169	      8.42209041	      1.43504504
      1.10700000	     -5.50566165	     -0.49638349	      1.25393060	      0.56171797	      1.00662292	      0.34629881	      9.58746948	      4.56036567	      4.60158648	    -15.07587603	     10.98183089	     -9.30327945	      3.44556460	     28.89296235	     -2.01774498	     -0.81159513	    -62.79957423	      6.63109897	     -1.70019947	      4.30832292	     -6.09829954	      8.23349382	      1.67342239
      1.11116667	     -5.44763339	     -0.36832997	      1.07778914	      0.56640167	      1.00706700	      0.34646083	      9.01431612	      4.43200039	      4.77848869	    -14.62034701	     11.02510850	     -9.21302278	      3.46703496	     29.17912197	     -1.96229751	     -0.90306644	    -61.83591488	      6.73719346	     -1.81386262	      4.20920858	     -6.20112847	      8.05600660	      1.91782455
      1.11533333	     -5.39818823	     -0.23163849	      0.89646593	      0.57108686	      1.00745920	      0.34661281	      8.45903356	      4.28854259	      4.94195282	    -14.18232092	     11.08121036	     -9.10512631	      3.48899546	     29.45315156	     -1.89376210	     -0.98759785	    -60.82559574	      6.80282694	     -1.95408703	      4.11402789	     -6.28932793	      7.87169625	      2.15316966
      1.11950000	     -5.34013827	     -0.11053345	      0.71781992	      0.57578118	      1.00780786	      0.34675431	      7.89196205	      4.15621954	      5.09613254	    -13.73770496	     11.14028581	     -8.98206123	      3.51201998	     29.70375217	     -1.83687221	     -1.05107540	    -59.78474794	      6.84085897	     -2.10902768	      4.02038706	     -6.38616329	      7.70330387	      2.38996651
      1.12366667	     -5.27702756	      0.01254007	      0.53688787	      0.58049013	      1.00813314	      0.34688727	      7.32179983	      4.01618149	      5.23737620	    -13.29726082	     11.20075447	     -8.85247013	      3.53371503	     29.92675453	     -1.77557408	     -1.10617824	    -58.69797357	      6.84193582	     -2.28372989	      3.93658749	     -6.48119946	      7.53732142	      2.61419168
      1.12783333	     -5.21518267	      0.13419473	      0.35752819	      0.58518289	      1.00840900	      0.34700558	      6.75785065	      3.87247733	      5.37783174	    -12.86385441	     11.27518658	     -8.69695456	      3.55987820	     30.13478774	     -1.70584503	     -1.13397306	    -57.57517664	      6.81299326	     -2.47318659	      3.84380246	     -6.59089835	      7.36949450	      2.85948631
      1.13200000	     -5.15280471	      0.25907497	      0.17855430	      0.58990525	      1.00865752	      0.34710651	      6.19475010	      3.71884329	      5.49245563	    -12.43437060	     11.35336071	     -8.53378639	      3.58566798	     30.31776387	     -1.63069378	     -1.15596774	    -56.40431876	      6.74660292	     -2.67947411	      3.75640084	     -6.68300826	      7.19955086	      3.08648885
